<?xml version="1.0" encoding="iso-8859-1"?>
<!-- Generator: Adobe Illustrator 19.0.0, SVG Export Plug-In . SVG Version: 6.00 Build 0)  -->
<svg version="1.1" id="Layer_1" xmlns="http://www.w3.org/2000/svg" xmlns:xlink="http://www.w3.org/1999/xlink" x="0px" y="0px"
	 viewBox="0 0 512 512" style="enable-background:new 0 0 512 512;" xml:space="preserve">
<g>
	<path style="fill:#3E3D43;" d="M259.477,485.536V507.1c0,0,4.929,6.922,14.171,4.313c9.242-2.609,41.641-19.455,39.247-24.736
		c-5.824-12.846-19.916-4.135-37.824-2.736C265.213,484.71,259.477,485.536,259.477,485.536z"/>
	<path style="fill:#3E3D43;" d="M209.573,457.812v21.564c0,0,4.929,6.922,14.171,4.313c9.242-2.609,42.465-19.912,39.247-24.736
		c-8.142-12.208-19.916-4.135-37.824-2.736C215.309,456.986,209.573,457.812,209.573,457.812z"/>
</g>
<path style="fill:#FEC377;" d="M203.501,247.539l0.99,18.742c0,0,6.238,4.159,6.931,4.852c0.693,0.693,16.136-4.929,16.136-6.7
	s-3.43-12.707-3.43-14.324s-1.155-9.934-1.155-9.934L203.501,247.539z"/>
<path style="fill:#2E2E30;" d="M229.383,90.173c-5.762-0.773-25.355-2.13-28.435,36.485c-1.335,16.735-2.52,43.654-1.696,63.78
	c1.286,31.391,2.433,59.126,2.433,59.126s11.315,10.259,26.371-1.533c0,0-4.241-65.159-2.157-88.719
	C228.98,124.5,241.302,91.773,229.383,90.173z"/>
<g>
	<path style="fill:#1D1D1F;" d="M206.44,242.729c0,0-1.658-34.312-1.141-65.513c0.399-24.143,1.032-34.31,1.129-46.362v-0.002
		c-4.36,36.825-1.231,120.884-1.228,120.944c1.746,0.844,4.081,1.652,6.881,1.856l-0.153-3.317
		C209.972,248.075,208.143,245.568,206.44,242.729z"/>
	<path style="fill:#1D1D1F;" d="M208.892,233.939l-2.449,224.913c0,0-0.487,6.193,16.026,6.193s17.386-7.9,17.386-7.9l6.58-165.301
		l2.993,1.646l6.848,193.557c0,0-0.487,6.193,16.026,6.193s17.386-7.9,17.386-7.9l2.372-236.697L208.892,233.939z"/>
</g>
<path style="fill:#2E2E30;" d="M206.44,242.729c0,0-1.658-34.312-1.141-65.513c0.434-26.181,1.141-35.925,1.141-49.466
	c0-30.465,13.067-37.769,22.942-37.577c0,0,39.541,11.804,70.06,38.804l1.873,119.828c-6.207,21.373-36.583,28.515-63.088,18.83
	l-3.75-13.935l-3.792,10.659C220.689,259.279,212.725,253.213,206.44,242.729z"/>
<g>
	<path style="fill:#FEC377;" d="M285.432,45.185c0,0,1.837,33.151-6.266,39.092s-46.558,2.042-57.952-17.994
		s-5.144-57.888,20.187-62C270.99-0.519,287.197,15.41,285.432,45.185z"/>
	<path style="fill:#FEC377;" d="M242.982,73.904l-6.581,33.52c0,0,11.005,11.868,31.484,3.369c0,0,1.897-25.799,3.745-29.727
		C273.479,77.138,242.982,73.904,242.982,73.904z"/>
</g>
<path style="fill:#3E3D43;" d="M287.115,28.899c10.944-32.841-45.397-34.147-59.189-21.428c-6.063,5.591-22.083,25.944-8.669,55.81
	C225.051,76.18,241.883,87.9,241.883,87.9s18.378-15.794,19.065-18.885c0,0-8.394-14.505,0-20.148
	c9.595-6.451,11.825,16.644,11.825,16.644s1.381-22.038,1.344-28.751C276.115,21.529,284.799,35.849,287.115,28.899z"/>
<path style="fill:#FEC377;" d="M285.623,290.763c0,0,0.461,15.971,0.564,18.011c0.105,2.056-1.946,3.458-0.315,7.52
	c0.255,0.635,5,3.953,6.705,4.504c1.843,0.596,13.272-7.231,14.956-8.472c1.683-1.241,0.281-11.198,0.161-13.579
	c-0.037-0.728-0.321-12.437-1.735-12.944C304.546,285.294,285.623,290.763,285.623,290.763z"/>
<path style="fill:#2E2E30;" d="M301.315,130.412c-3.301-5.007-16.578-13.304-22.739,7.643s4.481,157.554,4.481,157.554
	s16.138,10.421,26.859-5.984c0,0-6.081-51.227-6.081-82.795C303.836,175.262,307.531,139.842,301.315,130.412z"/>
<g>
	<path style="fill:#1D1D1F;" d="M276.683,162.026c-0.442,21.191-1.214,75.633,1.621,107.563c0.965-0.288,1.902-0.613,2.828-0.955
		C279.142,238.957,276.371,191.57,276.683,162.026z"/>
	<path style="fill:#1D1D1F;" d="M276.891,153.217v-0.002c0,0-0.001,0.021-0.001,0.047
		C276.89,153.248,276.891,153.232,276.891,153.217z"/>
</g>
<path style="fill:#CD2A01;" d="M235.694,106.624c-0.335-1.847,0.708-8.59,2.449-8.069c0,0,0.378,8.336,30.413,4.17l3.156,6.198
	c0,0-9.988,7.071-19.577,6.322C245.32,114.713,236.402,110.528,235.694,106.624z"/>
<g>
</g>
<g>
</g>
<g>
</g>
<g>
</g>
<g>
</g>
<g>
</g>
<g>
</g>
<g>
</g>
<g>
</g>
<g>
</g>
<g>
</g>
<g>
</g>
<g>
</g>
<g>
</g>
<g>
</g>
</svg>
